<?xml version="1.0" encoding="utf-8"?>
<!-- Generator: Adobe Illustrator 16.0.0, SVG Export Plug-In . SVG Version: 6.00 Build 0)  -->
<!DOCTYPE svg PUBLIC "-//W3C//DTD SVG 1.1//EN" "http://www.w3.org/Graphics/SVG/1.1/DTD/svg11.dtd">
<svg version="1.1" id="Layer_1" xmlns="http://www.w3.org/2000/svg" xmlns:xlink="http://www.w3.org/1999/xlink" x="0px" y="0px"
	 width="538px" height="468px" viewBox="0 0 538 468" enable-background="new 0 0 538 468" xml:space="preserve">
<g>
	<defs>
		<rect id="SVGID_1_" x="-460" y="-270" width="1920" height="1080"/>
	</defs>
	<clipPath id="SVGID_2_">
		<use xlink:href="#SVGID_1_"  overflow="visible"/>
	</clipPath>
	<g opacity="0.2" clip-path="url(#SVGID_2_)">
		<path fill="#FFFFFF" d="M267.633,431.034c-0.689-0.394-1.361-0.144-2.182,0.052c-1.514,0.359-2.883,1.254-4.523,1.196
			c-0.408-0.015-0.923,0.351-1.229,0.685c-0.534,0.58-1.037,0.785-1.827,0.507c-0.327-0.114-0.853,0.024-1.17,0.227
			c-1.489,0.943-2.413,2.701-1.845,5c0.208,0.843,0.332,1.562-0.211,2.447c-0.875,1.428-2.051,1.895-3.612,1.801
			c-0.621-0.036-1.241-0.091-1.833-0.136c-1.561,2.064-1.551,2.102-4.302,2.731c-0.548,0.126-1.229-0.053-1.782-0.261
			c-1.408-0.527-2.625-0.729-4.063,0.238c-0.791,0.532-2.15,0.441-3.223,0.337c-1.382-0.137-2.441,0.123-3.339,1.21
			c-0.644,0.78-1.361,1.265-2.611,0.852c-1.383-0.458-2.685,0.34-3.382,1.636c-0.175,0.326-0.328,0.664-0.503,1.025
			c-0.832,0.121-1.676,0.244-2.764,0.403c-0.045-2.086-1.196-4.049-0.502-6.384c0.521-1.752-0.783-3.195-1.984-4.352
			c-1.881-1.81-3.809-3.576-6.002-5.06c-0.688-0.466-1.037-1.492-1.394-2.323c-0.237-0.552-0.331-1.223-0.279-1.822
			c0.156-1.844-0.897-2.995-2.352-4.221c-0.702,0.582-1.37,1.193-2.1,1.726c-1.037,0.758-2.234,1.297-2.747,2.631
			c-0.177,0.461-0.732,0.859-1.209,1.113c-1.22,0.648-2.112,1.494-2.373,2.891c-0.041,0.22-0.247,0.442-0.434,0.598
			c-1.678,1.399-2.239,3.388-2.872,5.318c-0.631,1.921-1.494,2.818-3.535,2.555c-3.356-0.435-5.278,1.363-7.005,3.695
			c-0.148,0.2-0.375,0.41-0.391,0.626c-0.165,2.346-2.327,3.742-2.907,5.9c-0.093,0.344-0.719,0.821-1.044,0.784
			c-2.052-0.229-4.088-0.589-6.128-0.903c-0.065-0.107-0.19-0.216-0.184-0.314c0.107-1.601-0.519-2.705-1.866-3.731
			c-1.259-0.96-2.225-2.352-3.134-3.675c-0.774-1.129-0.529-1.546,0.944-2.224c-1.995-7.054-4.742-13.884-7.147-21.034
			c-1.867,1.383-3.611,0.801-5.463-0.041c0.152-1.617-1.007-2.812-1.831-4.146c-0.153-0.248-0.451-0.582-0.683-0.582
			c-1.295-0.004-1.494-0.871-1.687-1.833c-0.118-0.594-0.37-1.162-0.569-1.766c0.914-1.908,0.898-1.972-0.942-3.512
			c0.877-1.486,2.777-1.798,3.894-3.184c-0.572-0.901-1.156-1.824-1.777-2.806c-0.464,0.264-0.793,0.435-1.106,0.631
			c-1.668,1.041-1.811,1.017-2.962-0.65c-0.352-0.511-0.681-1.039-0.987-1.579c-0.081-0.145-0.036-0.358-0.061-0.686
			c0.743-0.452,1.529-0.933,2.541-1.551c-1.186-1.589-1.482-3.651-3.435-4.69c-0.329-0.175-0.532-0.636-0.717-1.001
			c-0.584-1.154-1.08-2.356-1.706-3.488c-1.382-2.498-2.824-4.965-4.243-7.445c-0.153-0.269-0.238-0.625-0.467-0.796
			c-1.472-1.108-1.764-2.78-2.252-4.368c-0.673-2.189-1.401-4.362-2.048-6.559c-0.329-1.119-0.531-2.273-0.817-3.534
			c0.995-0.159,1.841-0.293,2.838-0.451c-0.248-1.229,0.125-2.145,1.189-2.843c0.388-0.255,0.618-0.893,0.709-1.393
			c0.119-0.654,0.029-1.347,0.029-2.219h-4.408c-0.111-1.675,1.759-1.498,2.455-2.627c-1.315-1.731-3.375-0.954-5.257-1.456
			c-0.297-2.454-0.612-5.048-0.954-7.864c-0.973,0.438-1.729,0.64-2.304,1.073c-0.568,0.431-1.162,1.024-1.385,1.667
			c-1.027,2.959-2.623,4.584-5.516,5.733c-0.883,0.351-1.734,1.049-2.317,1.8c-1.26,1.617-2.371,3.35-3.473,5.079
			c-0.643,1.007-1.438,1.691-2.672,1.805c-1.151,0.105-1.779,0.793-2.152,1.807c-0.301,0.813-0.625,1.619-0.986,2.408
			c-1.016,2.218-2.75,2.969-5.063,2.218c-0.418-0.136-0.822-0.326-1.248-0.422c-1.801-0.403-3.278,0.457-3.743,2.22
			c-0.171,0.651-0.217,1.34-0.265,2.015c-0.162,2.283-0.287,4.568-0.456,6.851c-0.044,0.6-0.197,1.191-0.341,2.025
			c-0.736-0.293-1.345-0.433-1.832-0.752c-0.81-0.53-1.64-0.539-2.532-0.369c-1.557,0.297-1.555,0.289-2.225-1.103
			c-0.078-0.162-0.211-0.3-0.373-0.525c-1.922,0.072-3.435,1.166-5.087,2.166c-0.207-0.527-0.409-0.967-0.553-1.423
			c-0.653-2.081-2.47-2.896-4.272-3.588c-1.116-0.429-2.189,0.245-2.721,1.196c-0.625,1.114-1.479,1.09-2.537,1.071
			c-1.967-0.035-3.956-0.578-5.908,0.207c-0.298,0.119-0.721-0.067-1.088-0.104c-0.808-0.079-1.622-0.25-2.424-0.206
			c-1.227,0.07-1.679,0.729-1.693,1.951c-0.007,0.497-0.181,1.036-0.428,1.477c-0.289,0.515-0.74,0.943-1.194,1.501
			c-0.775-0.813-1.349-1.748-2.581-1.778c-0.188-0.006-0.55-0.678-0.497-0.985c0.111-0.655,0.3-1.392,0.717-1.881
			c0.521-0.608,0.839-1.127,0.773-1.965c-0.029-0.365,0.401-0.939,0.776-1.131c1.853-0.946,2.729-2.701,3.745-4.304
			c0.551-0.87,0.622-1.833,0.194-2.979c-0.57-1.532-0.625-3.25-0.909-4.931c1.511-0.739,2.942-1.44,4.446-2.177
			c-0.31-0.757-0.539-1.313-0.763-1.859c0.068-0.115,0.105-0.257,0.196-0.318c0.57-0.383,1.66-0.325,1.459-1.372
			c-0.189-0.987-0.178-2.101-1.414-2.64c-1.027-0.447-1.945-1.131-2.956-1.622c-0.829-0.402-1.722-0.675-2.504-0.975
			c-1.864,1.89-2.733,1.819-4.698-0.254c0.255-0.997,0.74-1.976,0.361-3.154c-0.229-0.714-0.387-1.34-0.917-1.937
			c-0.557-0.625-0.872-1.458-1.243-2.111c0.855-1.444,1.928-2.066,3.482-1.947c0.52,0.04,1.12-0.166,1.587-0.427
			c1.006-0.56,2.054-1.122,2.883-1.892c0.48-0.447,0.788-1.299,0.787-1.968c-0.003-1.319,0.602-2.137,1.739-2.589
			c0.759-0.303,1.082-0.789,1.139-1.528c0.099-1.27,1.049-2.405,0.609-3.769c-0.045-0.14,0.055-0.396,0.175-0.505
			c1.271-1.159,0.631-2.474,0.294-3.817c0.851-0.903,1.767-1.456,3.145-0.673c-1.308-1.476-1.067-3.231-1.245-4.833
			c-0.124-1.112,0.334-2.276,0.426-3.425c0.109-1.356,0.034-2.634-1.025-3.786c-0.577-0.626-0.836-1.591-0.06-2.53
			c2.564-3.104,2.805-6.684,2.328-10.507c-0.137-1.087,0.194-2.514,1.264-3.414c0.995-0.835,2.01-1.646,3.009-2.462
			c-1.013-1.587-1.169-3.251-0.775-5.051c-0.832-0.766-1.729-1.371-2.891-1.616c-0.44-0.094-0.951-0.39-1.197-0.746
			c-0.626-0.914-1.114-1.921-1.676-2.88c-0.425-0.724-1.053-1.386-1.269-2.16c-0.213-0.765-0.234-1.536-0.797-2.208
			c-0.207-0.247-0.168-0.847-0.021-1.195c0.806-1.896-0.007-3.793-0.05-5.673c-0.017-0.74-0.356-1.465,0.01-2.247
			c0.111-0.237-0.029-0.585-0.059-0.951c-2.006,0-3.942-0.015-5.879,0.006c-0.942,0.011-1.891,0.035-2.826,0.141
			c-2.646,0.299-4.748-0.786-6.652-2.422c-0.048-0.04-0.133-0.065-0.146-0.111c-0.551-2.004-2.136-1.432-3.517-1.363
			c-0.189,0.01-0.382,0.068-0.565,0.043c-3.209-0.459-5.533,0.907-7.45,3.316c-0.887,1.113-2.039,2.021-3.015,3.072
			c-0.357,0.384-0.563,0.908-0.815,1.379c-0.052,0.098,0.024,0.342-0.014,0.354c-1.806,0.579-1.874,2.933-3.913,3.487
			c-0.148-0.492-0.404-1.041-0.461-1.61c-0.108-1.088-0.24-2.203-0.103-3.275c0.112-0.878,0.599-1.712,1.019-2.825
			c-0.598-0.502-1.327-1.116-2.217-1.866c0.058-0.966-0.539-1.74-1.681-2.144c-0.221-0.077-0.516-0.246-0.573-0.434
			c-0.369-1.189-1.295-1.408-2.396-1.69c-0.905-0.233-1.724-0.951-2.466-1.585c-0.556-0.474-0.927-1.155-1.289-1.627
			c-2.622,0-5.125,0.039-7.625-0.033c-0.507-0.014-1.049-0.379-1.491-0.696c-1.424-1.022-2.851-2.05-4.194-3.17
			c-0.955-0.797-1.947-0.995-3.144-0.784c-1.046,0.187-2.119,0.227-3.254,0.338c-0.324-0.528-0.661-0.971-0.882-1.463
			c-0.652-1.442-1.631-2.556-3.003-3.411c-0.623-0.388-1.005-1.13-1.571-1.629c-0.871-0.767-1.808-1.465-2.86-2.304
			c-0.024-0.421-0.064-1.101-0.103-1.729c0.795-0.665,1.635-1.368,2.523-2.11c0.611,0.12,1.283,0.25,2.015,0.392
			c0.312-0.395,0.608-0.77,0.949-1.201c0.808,0.267,1.566,0.556,2.347,0.763c1.163,0.308,1.58,0.125,2.082-0.973
			c0.36-0.786,0.611-1.621,0.9-2.437c0.638-1.802,2.018-3.047,3.469-4.81c0.378,1.174,0.629,1.949,0.932,2.888
			c0.32,0.086,0.773,0.211,1.246,0.339c0.13-0.26,0.25-0.411,0.278-0.577c0.052-0.304,0.15-0.652,0.05-0.918
			c-1.228-3.289-0.366-7.019-2.241-10.175c-0.179-0.302-0.157-0.719-0.26-1.243c2.472,1.187,3.225,0.878,4.655-1.737
			c0.522,0.039,1.074,0.079,1.671,0.124c0.346-0.471,0.673-0.915,1.04-1.414c-0.66-0.727-1.284-1.415-1.906-2.101
			c1.251-0.162,1.819,1.868,3.288,0.359c-0.377-0.608-0.788-1.269-1.081-1.743c0.191-1.138,0.445-2.091,0.489-3.054
			c0.048-1.064,0.531-1.756,1.463-2.179c1.37-0.624,2.717-1.331,4.144-1.785c1.503-0.48,2.693-1.077,2.614-2.919
			c0.677-0.261,1.302-0.505,2.038-0.791c0.196-1.139,0.398-2.328,0.679-3.964c0.667,2.014,1.199,3.622,1.832,5.53
			c0.38-0.455,0.685-0.702,0.821-1.019c0.114-0.263,0.072-0.614,0.029-0.917c-0.438-3.044,0.635-5.721,2.015-8.348
			c0.268-0.51,0.27-1.155,0.456-2.023c0.354,0.623,0.581,1.024,0.851,1.499c0.32-0.103,0.657-0.212,1.099-0.355
			c-0.073-0.841-0.084-1.639-0.224-2.414c-0.287-1.576,0.378-2.757,1.533-3.723c0.64-0.535,0.749-0.467,2.132,0.583
			c0.197-0.288,0.545-0.564,0.557-0.852c0.077-1.895-0.056-3.808,0.139-5.69c0.316-3.042-0.895-5.624-2.089-8.282
			c-0.6-1.334-0.847-2.829-1.183-4.268c-0.342-1.463,0.267-2.808,0.716-4.15c0.309-0.925,1.145-1.218,2.04-1.446
			c1.164-0.294,1.506-0.613,1.101-1.67c-0.746-1.944,0.222-3.032,1.614-4.066c0.953-0.708,1.826-1.538,2.839-2.144
			c0.829-0.497,1.812-0.748,2.945-1.193c0.89,1.48,1.8,2.74,2.451,4.116c2.263,4.786,5.97,8.553,9.161,12.682
			c0.41,0.532,1.003,0.934,1.538,1.365c1.95,1.568,3.853,3.202,5.885,4.664c2.767,1.99,4.789,4.705,7.289,6.947
			c0.324,0.289,0.529,0.731,0.886,0.957c1.089,0.693,1.539,1.655,1.728,2.898c0.243,1.611,2.3,3.038,3.944,2.921
			c1.445-0.102,2.979,0.745,3.253,2.178c0.347,1.82,1.46,2.695,3.045,3.384c2.954,1.282,5.641,3.014,8.096,5.077
			c2.39,2.009,4.696,4.118,7.149,6.05c3.724,2.934,6.563,6.648,9.562,10.214c2.096,2.495,4.407,4.747,6.862,6.889
			c2.449,2.136,4.824,4.355,7.191,6.58c3.821,3.592,7.613,7.213,11.407,10.833c2.466,2.351,5.303,4.124,8.382,5.632
			c5.748,2.815,11.352,5.914,17.118,8.689c3.95,1.899,8.053,3.505,12.137,5.12c1.087,0.429,1.579,0.959,1.747,2.081
			c0.696,4.647,1.459,9.286,2.236,13.921c0.193,1.155,0.527,2.289,0.796,3.434c1,4.252,3.292,7.676,6.684,10.498
			c5.5,4.576,6.795,5.164,14.113,5.508c2.202,0.103,4.413,0.1,6.617,0.059c3.833-0.072,7.663-0.212,11.855-0.333
			c1.645,1.939,3.546,4.161,5.425,6.402c2.122,2.531,4.184,5.111,6.343,7.613c2.616,3.033,6,4.631,10.036,4.913
			c0.439,0.031,0.887,0.045,1.316,0.136c6.554,1.369,13.168,1,19.773,0.589c4.572-0.285,8.436-1.989,11.631-5.4
			c4.903-5.237,10.106-10.203,15.074-15.382c2.98-3.107,5.725-6.43,8.634-9.603c1.515-1.651,3.15-3.197,4.743-4.778
			c1.24-1.231,2.537-2.409,3.737-3.674c1.122-1.183,2.412-1.85,4.071-2.102c5.055-0.765,10.098-1.362,15.239-1.009
			c5.866,0.403,11.47,1.64,16.591,4.552c2.943,1.674,5.804,3.482,8.702,5.23c2.363,1.425,4.698,2.892,7.092,4.264
			c4.634,2.655,9.706,3.972,14.961,4.902c4.895,0.867,9.756,0.791,14.663,0.443c1.631-0.115,3.28,0.016,4.917-0.053
			c1.054-0.044,2.111-0.194,3.151-0.388c2.474-0.458,4.942-0.952,7.404-1.469c3.229-0.677,5.711-2.402,7.66-5.032
			c5.192-7.003,10.526-13.904,15.66-20.947c1.563-2.144,2.734-4.576,3.95-6.944c1.527-2.978,2.931-6.02,4.352-9.049
			c0.285-0.609,0.433-1.286,0.596-1.941c0.89-3.534,1.764-7.069,2.695-10.807c1.724,0.478,3.323,0.922,5.012,1.39
			c0.198-0.567,0.403-1.01,0.506-1.473c0.682-3.051,2.299-5.501,4.54-7.729c3.435-3.413,7.817-5.14,12.128-6.975
			c3.054-1.298,6.295-2.167,9.42-3.313c1.396-0.512,2.783-0.659,4.251-0.575c2.013,0.118,4.031,0.174,6.048,0.175
			c0.591,0,1.385-0.088,1.737-0.457c1.998-2.091,4.662-2.624,7.317-3.099c1.434-0.256,2.457-0.861,3.109-2.096
			c0.756-1.432,1.944-2.223,3.568-2.372c1.074-0.099,1.844-0.69,2.604-1.372c2.697-2.423,5.437-4.802,8.13-7.229
			c0.771-0.698,1.578-1.126,2.656-1.22c1.565-0.136,3.123-0.411,4.67-0.696c0.732-0.134,1.443-0.405,2.146-0.663
			c0.693-0.254,1.365-0.57,2.037-0.854c0.104,0.204,0.229,0.343,0.197,0.399c-1.341,2.402-0.604,4.957-0.579,7.456
			c0.002,0.178,0.06,0.375,0.148,0.531c1.686,2.987,2.636,6.268,3.931,9.412c0.362,0.884,0.656,1.709,0.46,2.676
			c-0.254,1.244,0.021,2.429,0.416,3.633c0.462,1.403,0.751,2.862,1.079,4.305c0.23,1.016,0.284,2.061,1.215,2.825
			c0.328,0.268,0.513,0.865,0.523,1.317c0.036,1.665-0.017,3.332-0.058,4.998c-0.053,2.098-0.178,4.196-0.155,6.293
			c0.005,0.543,0.334,1.177,0.711,1.603c1.026,1.16,2.159,2.231,3.32,3.409c-2.027,2.037-1.726,4.684-2.18,7.529
			c-0.735-1.38-1.617-1.482-2.676-1.235c-0.793,0.184-1.641,0.139-2.432,0.322c-1.734,0.401-3.448,0.882-5.126,1.318
			c0.049,0.561,0.072,0.85,0.098,1.172c-0.263,0.025-0.452,0.083-0.626,0.055c-1.582-0.255-3.11-0.272-4.607,0.486
			c-0.505,0.254-1.21,0.214-1.813,0.174c-0.86-0.057-1.712-0.235-2.488-0.352c-1.452,1.508-1.441,1.479-3.226,0.856
			c-0.741-0.259-1.536-0.367-2.276-0.536c-1.184,1.86-2.169,3.566-3.321,5.157c-0.647,0.893-1.515,1.657-2.383,2.36
			c-1.048,0.847-1.829,1.843-2.415,3.036c-0.38,0.771-0.905,1.476-1.433,2.316c0.188,0.601,0.419,1.295,0.621,1.998
			c0.331,1.155,0.477,2.272-0.245,3.393c-0.685,1.061-0.234,2.123,0.461,3.343c-0.865,0.284-1.588,0.613-2.348,0.749
			c-0.97,0.174-1.382,0.586-1.393,1.603c-0.021,1.909-0.692,3.605-2.124,4.965c-1.852,1.756-3.104,3.818-3.61,6.341
			c-0.202,1.009-0.763,1.948-1.173,2.948c-0.914,0.169-1.767,0.325-2.648,0.485c-1.171,3.083-2.178,6.11-0.872,9.386
			c0.311,0.777-0.085,1.248-1.009,1.326c-0.877,0.074-1.765,0.03-2.646,0.054c-0.613,0.018-1.226,0.063-1.973,0.103
			c0.293,1.777,2.313,2.006,2.756,3.434c-0.058,0.11-0.09,0.283-0.178,0.317c-2.056,0.797-2.437,2.725-2.997,4.448
			c-0.559,1.714-0.808,3.556-0.017,5.251c0.414,0.887,0.546,1.664,0.4,2.594c-0.125,0.804,0.292,1.429,1.058,1.79
			c0.738,0.349,1.5,0.653,2.21,1.051c0.862,0.482,1.722,0.989,2.51,1.578c1.272,0.95,3.643,1.463,5.118-0.042
			c1.209-1.231,2.601-2.291,3.986-3.496c1.857,2.247,3.69,4.463,5.662,6.848c0.731-1.035,1.348-1.906,2.146-3.035
			c0.495,1.352,0.719,2.527,1.327,3.464c0.584,0.896,1.567,1.545,2.188,2.127c-0.351,1.285-0.389,2.638-1.047,3.571
			c-1.224,1.736-0.667,3.536-0.833,5.338c-0.184,1.974,0.133,4.144-1.412,5.825c-0.711,0.773-1.348,1.634-2.151,2.297
			c-2.462,2.028-5.051,3.911-7.476,5.979c-3.132,2.67-4.936,6.033-4.952,10.196c-0.005,1.472,0,2.945,0,4.586h-3.703
			c-0.442,1.904-0.844,3.635-1.303,5.606c-4.438-0.307-8.872-0.612-13.509-0.933c-0.041,1.325-0.27,2.81-0.082,4.242
			c0.205,1.564-0.001,2.936-0.912,4.209c0.395,0.688,0.762,1.328,1.176,2.051c-1.558,1.094-2.963,1.595-4.858,0.61
			c-1.543-0.801-3.291-1.197-4.485-2.594c-0.173-0.202-0.559-0.229-1.174-0.461c0.302,1.499,0.558,2.771,0.8,3.973
			c-0.223,0.17-0.323,0.31-0.419,0.31c-2.224-0.003-3.44,1.314-4.525,3.039c-1.365,2.17-2.582,4.372-3.318,6.832
			c-0.494,1.655-1.108,3.274-1.688,4.963c-1.498-0.277-2.52-1.053-3.076-2.303c-0.71-1.594-2.083-2.243-3.63-2.633
			c-2.195-0.555-4.398-1.109-6.629-1.479c-0.99-0.163-2.059,0.124-3.191,0.215c0.05,0.589,0.156,0.957,0.095,1.295
			c-0.202,1.088-0.346,2.189-1.787,2.511c-0.825,0.185-1.294,0.861-1.616,1.675c-0.9,2.274-2.819,3.342-5.113,3.832
			c-0.662,0.142-1.413,0.158-2.067,0.002c-1.739-0.416-2.724,0.631-3.654,1.723c-0.275,0.321-0.287,0.907-0.306,1.378
			c-0.034,0.865-0.258,1.487-1.179,1.887c-1.14,0.495-1.817,1.438-2.122,2.675c-0.154,0.626-0.583,1.186-0.898,1.771
			c-0.621,1.155-1.252,2.306-1.87,3.462c-0.055,0.103-0.101,0.268-0.056,0.354c1.017,1.935-0.216,3.897,0.165,5.789
			c-0.885,0.712-1.675,1.187-2.846,1.325c-1.214,0.145-2.499,0.732-3.082,2.104c-0.411,0.965-0.956,1.878-1.456,2.807
			c-0.563,1.043-1.017,1.09-2.099,0.692c-1.754-0.642-3.561-1.146-5.354-1.678c-0.752-0.223-1.527-0.516-2.292-0.514
			c-0.782,0.003-1.496,0.376-2.381,0.089c-0.875-0.284-1.776,0.714-1.675,1.676c0.103,0.98,0.287,1.952,0.443,2.973
			c0.361,0.217,0.729,0.45,1.108,0.665c1.989,1.129,2.073,3.146,0.176,4.366c-0.158,0.102-0.327,0.185-0.491,0.276
			c-2.108,1.19-2.003,1.18-1.742,3.787c0.09,0.9-0.48,1.863-0.717,2.687c0.137,1.221,0.269,2.39,0.399,3.536
			c-1.354,0-2.511-0.047-3.662,0.014c-1.285,0.067-1.828,1.197-2.727,2.086c-1.641-0.47-3.324-0.929-4.993-1.432
			c-0.817-0.245-1.563-0.301-2.337,0.177c-0.344,0.214-0.853,0.381-1.228,0.3c-2.435-0.521-4.57,0.552-6.72,1.274
			c-1.988,0.669-1.855,0.769-3.391-0.531c-0.923-0.783-2.056-1.396-3.193-1.844c-0.682-0.269-0.998-0.57-1.201-1.219
			c-0.381-1.222-0.839-2.421-1.302-3.616c-0.081-0.209-0.303-0.429-0.514-0.513c-1.431-0.565-2.003-1.78-2.527-3.063
			c-0.16-0.389-0.447-0.736-0.718-1.068c-0.744-0.908-1.561-1.763-2.253-2.706c-0.604-0.822-1.282-1.271-2.365-1.212
			c-0.868,0.048-1.779,0.01-2.616-0.201c-1.001-0.252-2.038-0.488-2.469-1.727c-0.366-1.05-0.357-1.821,0.454-2.678
			c1.259-1.328,2.17-2.887,2.378-4.743c0.122-1.1,0.088-2.081-0.644-3.138c-0.837-1.206-0.459-2.707-0.05-4.104
			c0.179-0.613,0.288-1.352,0.11-1.941c-0.529-1.762-1.187-3.488-1.848-5.208c-0.48-1.248-0.467-1.476,0.495-2.213
			c1.355-1.04,1.711-2.045,0.952-3.504c-0.647-1.243-1.528-2.367-2.628-3.41c0-0.735,0.049-1.477-0.02-2.207
			c-0.039-0.411-0.151-1.008-0.438-1.172c-1.47-0.841-1.063-2.057-0.775-3.237c0.275-1.127,0.64-2.234,1.004-3.481
			c-1.484-0.945-2.819-1.856-4.221-2.651c-0.372-0.21-0.968-0.148-1.429-0.06c-0.538,0.105-1.043,0.378-1.771,0.657
			c0.667,2.05-0.599,3.671-1.396,5.462c-0.426,0.959-0.42,2.103-0.664,3.47c0.159-0.063-0.048,0.039-0.266,0.101
			c-1.564,0.445-1.566,0.442-1.708,2.11c-0.116,1.373-0.478,1.794-1.813,1.861c-1.329,0.068-2.655-0.015-3.384,1.462
			c-0.139,0.28-0.747,0.358-1.152,0.489c-0.347,0.111-0.777,0.072-1.058,0.262c-0.64,0.432-1.205,0.449-1.936,0.168
			c-1.173-0.452-2.16-0.112-3.013,0.869c-1.243,1.43-1.572,1.349-3.372,0.578c-0.938-0.401-2.051-0.413-3.22-0.625
			c-0.934-1.417-1.875-3.019-2.997-4.486c-0.815-1.066-1.938-1.9-2.797-2.938c-0.917-1.112-1.504-2.403-1.553-3.888
			c-0.016-0.486-0.137-0.974-0.24-1.454c-0.255-1.195-0.435-2.416-0.817-3.573c-0.38-1.154-0.969-2.242-1.513-3.462
			c-1.075,0.368-2.016,0.977-2.892,0.075c-1.429,0.499-2.684-0.194-4.004-0.524c-0.756-0.189-1.752,0.579-2.087,1.558
			c-0.455,1.327-0.477,2.666,0.092,3.986c1.062,2.469,0.29,4.109-2.345,4.35c-1.472,0.133-2.307,0.748-2.964,1.934
			c-0.585-0.089-1.124-0.171-1.86-0.283c-0.651,1.106-1.402,2.176-1.925,3.344c-0.333,0.74-0.806,1.191-1.461,1.603
			c-2.027,1.271-4.355,1.528-6.627,1.978c-0.302,0.06-0.609,0.088-0.902,0.127c-0.117,0.213-0.301,0.389-0.277,0.53
			c0.545,3.203-1.336,5.132-3.677,6.834c-0.281,0.205-0.495,0.495-0.763,0.722c-0.594,0.501-1.132,1.222-1.822,1.421
			c-0.954,0.274-1.417,0.694-1.809,1.593C269.335,428.594,268.48,429.681,267.633,431.034"/>
		<path fill="none" stroke="#000000" stroke-width="1.4408" stroke-miterlimit="10" d="M267.633,431.034
			c-0.689-0.394-1.361-0.144-2.182,0.052c-1.514,0.359-2.883,1.254-4.523,1.196c-0.408-0.015-0.923,0.351-1.229,0.685
			c-0.534,0.58-1.037,0.785-1.827,0.507c-0.327-0.114-0.853,0.024-1.17,0.227c-1.489,0.943-2.413,2.701-1.845,5
			c0.208,0.843,0.332,1.562-0.211,2.447c-0.875,1.428-2.051,1.895-3.612,1.801c-0.621-0.036-1.241-0.091-1.833-0.136
			c-1.561,2.064-1.551,2.102-4.302,2.731c-0.548,0.126-1.229-0.053-1.782-0.261c-1.408-0.527-2.625-0.729-4.063,0.238
			c-0.791,0.532-2.15,0.441-3.223,0.337c-1.382-0.137-2.441,0.123-3.339,1.21c-0.644,0.78-1.361,1.265-2.611,0.852
			c-1.383-0.458-2.685,0.34-3.382,1.636c-0.175,0.326-0.328,0.664-0.503,1.025c-0.832,0.121-1.676,0.244-2.764,0.403
			c-0.045-2.086-1.196-4.049-0.502-6.384c0.521-1.752-0.783-3.195-1.984-4.352c-1.881-1.81-3.809-3.576-6.002-5.06
			c-0.688-0.466-1.037-1.492-1.394-2.323c-0.237-0.552-0.331-1.223-0.279-1.822c0.156-1.844-0.897-2.995-2.352-4.221
			c-0.702,0.582-1.37,1.193-2.1,1.726c-1.037,0.758-2.234,1.297-2.747,2.631c-0.177,0.461-0.732,0.859-1.209,1.113
			c-1.22,0.648-2.112,1.494-2.373,2.891c-0.041,0.22-0.247,0.442-0.434,0.598c-1.678,1.399-2.239,3.388-2.872,5.318
			c-0.631,1.921-1.494,2.818-3.535,2.555c-3.356-0.435-5.278,1.363-7.005,3.695c-0.148,0.2-0.375,0.41-0.391,0.626
			c-0.165,2.346-2.327,3.742-2.907,5.9c-0.093,0.344-0.719,0.821-1.044,0.784c-2.052-0.229-4.088-0.589-6.128-0.903
			c-0.065-0.107-0.19-0.216-0.184-0.314c0.107-1.601-0.519-2.705-1.866-3.731c-1.259-0.96-2.225-2.352-3.134-3.675
			c-0.774-1.129-0.529-1.546,0.944-2.224c-1.995-7.054-4.742-13.884-7.147-21.034c-1.867,1.383-3.611,0.801-5.463-0.041
			c0.152-1.617-1.007-2.812-1.831-4.146c-0.153-0.248-0.451-0.582-0.683-0.582c-1.295-0.004-1.494-0.871-1.687-1.833
			c-0.118-0.594-0.37-1.162-0.569-1.766c0.914-1.908,0.898-1.972-0.942-3.512c0.877-1.486,2.777-1.798,3.894-3.184
			c-0.572-0.901-1.156-1.824-1.777-2.806c-0.464,0.264-0.793,0.435-1.106,0.631c-1.668,1.041-1.811,1.017-2.962-0.65
			c-0.352-0.511-0.681-1.039-0.987-1.579c-0.081-0.145-0.036-0.358-0.061-0.686c0.743-0.452,1.529-0.933,2.541-1.551
			c-1.186-1.589-1.482-3.651-3.435-4.69c-0.329-0.175-0.532-0.636-0.717-1.001c-0.584-1.154-1.08-2.356-1.706-3.488
			c-1.382-2.498-2.824-4.965-4.243-7.445c-0.153-0.269-0.238-0.625-0.467-0.796c-1.472-1.108-1.764-2.78-2.252-4.368
			c-0.673-2.189-1.401-4.362-2.048-6.559c-0.329-1.119-0.531-2.273-0.817-3.534c0.995-0.159,1.841-0.293,2.838-0.451
			c-0.248-1.229,0.125-2.145,1.189-2.843c0.388-0.255,0.618-0.893,0.709-1.393c0.119-0.654,0.029-1.347,0.029-2.219h-4.408
			c-0.111-1.675,1.759-1.498,2.455-2.627c-1.315-1.731-3.375-0.954-5.257-1.456c-0.297-2.454-0.612-5.048-0.954-7.864
			c-0.973,0.438-1.729,0.64-2.304,1.073c-0.568,0.431-1.162,1.024-1.385,1.667c-1.027,2.959-2.623,4.584-5.516,5.733
			c-0.883,0.351-1.734,1.049-2.317,1.8c-1.26,1.617-2.371,3.35-3.473,5.079c-0.643,1.007-1.438,1.691-2.672,1.805
			c-1.151,0.105-1.779,0.793-2.152,1.807c-0.301,0.813-0.625,1.619-0.986,2.408c-1.016,2.218-2.75,2.969-5.063,2.218
			c-0.418-0.136-0.822-0.326-1.248-0.422c-1.801-0.403-3.278,0.457-3.743,2.22c-0.171,0.651-0.217,1.34-0.265,2.015
			c-0.162,2.283-0.287,4.568-0.456,6.851c-0.044,0.6-0.197,1.191-0.341,2.025c-0.736-0.293-1.345-0.433-1.832-0.752
			c-0.81-0.53-1.64-0.539-2.532-0.369c-1.557,0.297-1.555,0.289-2.225-1.103c-0.078-0.162-0.211-0.3-0.373-0.525
			c-1.922,0.072-3.435,1.166-5.087,2.166c-0.207-0.527-0.409-0.967-0.553-1.423c-0.653-2.081-2.47-2.896-4.272-3.588
			c-1.116-0.429-2.189,0.245-2.721,1.196c-0.625,1.114-1.479,1.09-2.537,1.071c-1.967-0.035-3.956-0.578-5.908,0.207
			c-0.298,0.119-0.721-0.067-1.088-0.104c-0.808-0.079-1.622-0.25-2.424-0.206c-1.227,0.07-1.679,0.729-1.693,1.951
			c-0.007,0.497-0.181,1.036-0.428,1.477c-0.289,0.515-0.74,0.943-1.194,1.501c-0.775-0.813-1.349-1.748-2.581-1.778
			c-0.188-0.006-0.55-0.678-0.497-0.985c0.111-0.655,0.3-1.392,0.717-1.881c0.521-0.608,0.839-1.127,0.773-1.965
			c-0.029-0.365,0.401-0.939,0.776-1.131c1.853-0.946,2.729-2.701,3.745-4.304c0.551-0.87,0.622-1.833,0.194-2.979
			c-0.57-1.532-0.625-3.25-0.909-4.931c1.511-0.739,2.942-1.44,4.446-2.177c-0.31-0.757-0.539-1.313-0.763-1.859
			c0.068-0.115,0.105-0.257,0.196-0.318c0.57-0.383,1.66-0.325,1.459-1.372c-0.189-0.987-0.178-2.101-1.414-2.64
			c-1.027-0.447-1.945-1.131-2.956-1.622c-0.829-0.402-1.722-0.675-2.504-0.975c-1.864,1.89-2.733,1.819-4.698-0.254
			c0.255-0.997,0.74-1.976,0.361-3.154c-0.229-0.714-0.387-1.34-0.917-1.937c-0.557-0.625-0.872-1.458-1.243-2.111
			c0.855-1.444,1.928-2.066,3.482-1.947c0.52,0.04,1.12-0.166,1.587-0.427c1.006-0.56,2.054-1.122,2.883-1.892
			c0.48-0.447,0.788-1.299,0.787-1.968c-0.003-1.319,0.602-2.137,1.739-2.589c0.759-0.303,1.082-0.789,1.139-1.528
			c0.099-1.27,1.049-2.405,0.609-3.769c-0.045-0.14,0.055-0.396,0.175-0.505c1.271-1.159,0.631-2.474,0.294-3.817
			c0.851-0.903,1.767-1.456,3.145-0.673c-1.308-1.476-1.067-3.231-1.245-4.833c-0.124-1.112,0.334-2.276,0.426-3.425
			c0.109-1.356,0.034-2.634-1.025-3.786c-0.577-0.626-0.836-1.591-0.06-2.53c2.564-3.104,2.805-6.684,2.328-10.507
			c-0.137-1.087,0.194-2.514,1.264-3.414c0.995-0.835,2.01-1.646,3.009-2.462c-1.013-1.587-1.169-3.251-0.775-5.051
			c-0.832-0.766-1.729-1.371-2.891-1.616c-0.44-0.094-0.951-0.39-1.197-0.746c-0.626-0.914-1.114-1.921-1.676-2.88
			c-0.425-0.724-1.053-1.386-1.269-2.16c-0.213-0.765-0.234-1.536-0.797-2.208c-0.207-0.247-0.168-0.847-0.021-1.195
			c0.806-1.896-0.007-3.793-0.05-5.673c-0.017-0.74-0.356-1.465,0.01-2.247c0.111-0.237-0.029-0.585-0.059-0.951
			c-2.006,0-3.942-0.015-5.879,0.006c-0.942,0.011-1.891,0.035-2.826,0.141c-2.646,0.299-4.748-0.786-6.652-2.422
			c-0.048-0.04-0.133-0.065-0.146-0.111c-0.551-2.004-2.136-1.432-3.517-1.363c-0.189,0.01-0.382,0.068-0.565,0.043
			c-3.209-0.459-5.533,0.907-7.45,3.316c-0.887,1.113-2.039,2.021-3.015,3.072c-0.357,0.384-0.563,0.908-0.815,1.379
			c-0.052,0.098,0.024,0.342-0.014,0.354c-1.806,0.579-1.874,2.933-3.913,3.487c-0.148-0.492-0.404-1.041-0.461-1.61
			c-0.108-1.088-0.24-2.203-0.103-3.275c0.112-0.878,0.599-1.712,1.019-2.825c-0.598-0.502-1.327-1.116-2.217-1.866
			c0.058-0.966-0.539-1.74-1.681-2.144c-0.221-0.077-0.516-0.246-0.573-0.434c-0.369-1.189-1.295-1.408-2.396-1.69
			c-0.905-0.233-1.724-0.951-2.466-1.585c-0.556-0.474-0.927-1.155-1.289-1.627c-2.622,0-5.125,0.039-7.625-0.033
			c-0.507-0.014-1.049-0.379-1.491-0.696c-1.424-1.022-2.851-2.05-4.194-3.17c-0.955-0.797-1.947-0.995-3.144-0.784
			c-1.046,0.187-2.119,0.227-3.254,0.338c-0.324-0.528-0.661-0.971-0.882-1.463c-0.652-1.442-1.631-2.556-3.003-3.411
			c-0.623-0.388-1.005-1.13-1.571-1.629c-0.871-0.767-1.808-1.465-2.86-2.304c-0.024-0.421-0.064-1.101-0.103-1.729
			c0.795-0.665,1.635-1.368,2.523-2.11c0.611,0.12,1.283,0.25,2.015,0.392c0.312-0.395,0.608-0.77,0.949-1.201
			c0.808,0.267,1.566,0.556,2.347,0.763c1.163,0.308,1.58,0.125,2.082-0.973c0.36-0.786,0.611-1.621,0.9-2.437
			c0.638-1.802,2.018-3.047,3.469-4.81c0.378,1.174,0.629,1.949,0.932,2.888c0.32,0.086,0.773,0.211,1.246,0.339
			c0.13-0.26,0.25-0.411,0.278-0.577c0.052-0.304,0.15-0.652,0.05-0.918c-1.228-3.289-0.366-7.019-2.241-10.175
			c-0.179-0.302-0.157-0.719-0.26-1.243c2.472,1.187,3.225,0.878,4.655-1.737c0.522,0.039,1.074,0.079,1.671,0.124
			c0.346-0.471,0.673-0.915,1.04-1.414c-0.66-0.727-1.284-1.415-1.906-2.101c1.251-0.162,1.819,1.868,3.288,0.359
			c-0.377-0.608-0.788-1.269-1.081-1.743c0.191-1.138,0.445-2.091,0.489-3.054c0.048-1.064,0.531-1.756,1.463-2.179
			c1.37-0.624,2.717-1.331,4.144-1.785c1.503-0.48,2.693-1.077,2.614-2.919c0.677-0.261,1.302-0.505,2.038-0.791
			c0.196-1.139,0.398-2.328,0.679-3.964c0.667,2.014,1.199,3.622,1.832,5.53c0.38-0.455,0.685-0.702,0.821-1.019
			c0.114-0.263,0.072-0.614,0.029-0.917c-0.438-3.044,0.635-5.721,2.015-8.348c0.268-0.51,0.27-1.155,0.456-2.023
			c0.354,0.623,0.581,1.024,0.851,1.499c0.32-0.103,0.657-0.212,1.099-0.355c-0.073-0.841-0.084-1.639-0.224-2.414
			c-0.287-1.576,0.378-2.757,1.533-3.723c0.64-0.535,0.749-0.467,2.132,0.583c0.197-0.288,0.545-0.564,0.557-0.852
			c0.077-1.895-0.056-3.808,0.139-5.69c0.316-3.042-0.895-5.624-2.089-8.282c-0.6-1.334-0.847-2.829-1.183-4.268
			c-0.342-1.463,0.267-2.808,0.716-4.15c0.309-0.925,1.145-1.218,2.04-1.446c1.164-0.294,1.506-0.613,1.101-1.67
			c-0.746-1.944,0.222-3.032,1.614-4.066c0.953-0.708,1.826-1.538,2.839-2.144c0.829-0.497,1.812-0.748,2.945-1.193
			c0.89,1.48,1.8,2.74,2.451,4.116c2.263,4.786,5.97,8.553,9.161,12.682c0.41,0.532,1.003,0.934,1.538,1.365
			c1.95,1.568,3.853,3.202,5.885,4.664c2.767,1.99,4.789,4.705,7.289,6.947c0.324,0.289,0.529,0.731,0.886,0.957
			c1.089,0.693,1.539,1.655,1.728,2.898c0.243,1.611,2.3,3.038,3.944,2.921c1.445-0.102,2.979,0.745,3.253,2.178
			c0.347,1.82,1.46,2.695,3.045,3.384c2.954,1.282,5.641,3.014,8.096,5.077c2.39,2.009,4.696,4.118,7.149,6.05
			c3.724,2.934,6.563,6.648,9.562,10.214c2.096,2.495,4.407,4.747,6.862,6.889c2.449,2.136,4.824,4.355,7.191,6.58
			c3.821,3.592,7.613,7.213,11.407,10.833c2.466,2.351,5.303,4.124,8.382,5.632c5.748,2.815,11.352,5.914,17.118,8.689
			c3.95,1.899,8.053,3.505,12.137,5.12c1.087,0.429,1.579,0.959,1.747,2.081c0.696,4.647,1.459,9.286,2.236,13.921
			c0.193,1.155,0.527,2.289,0.796,3.434c1,4.252,3.292,7.676,6.684,10.498c5.5,4.576,6.795,5.164,14.113,5.508
			c2.202,0.103,4.413,0.1,6.617,0.059c3.833-0.072,7.663-0.212,11.855-0.333c1.645,1.939,3.546,4.161,5.425,6.402
			c2.122,2.531,4.184,5.111,6.343,7.613c2.616,3.033,6,4.631,10.036,4.913c0.439,0.031,0.887,0.045,1.316,0.136
			c6.554,1.369,13.168,1,19.773,0.589c4.572-0.285,8.436-1.989,11.631-5.4c4.903-5.237,10.106-10.203,15.074-15.382
			c2.98-3.107,5.725-6.43,8.634-9.603c1.515-1.651,3.15-3.197,4.743-4.778c1.24-1.231,2.537-2.409,3.737-3.674
			c1.122-1.183,2.412-1.85,4.071-2.102c5.055-0.765,10.098-1.362,15.239-1.009c5.866,0.403,11.47,1.64,16.591,4.552
			c2.943,1.674,5.804,3.482,8.702,5.23c2.363,1.425,4.698,2.892,7.092,4.264c4.634,2.655,9.706,3.972,14.961,4.902
			c4.895,0.867,9.756,0.791,14.663,0.443c1.631-0.115,3.28,0.016,4.917-0.053c1.054-0.044,2.111-0.194,3.151-0.388
			c2.474-0.458,4.942-0.952,7.404-1.469c3.229-0.677,5.711-2.402,7.66-5.032c5.192-7.003,10.526-13.904,15.66-20.947
			c1.563-2.144,2.734-4.576,3.95-6.944c1.527-2.978,2.931-6.02,4.352-9.049c0.285-0.609,0.433-1.286,0.596-1.941
			c0.89-3.534,1.764-7.069,2.695-10.807c1.724,0.478,3.323,0.922,5.012,1.39c0.198-0.567,0.403-1.01,0.506-1.473
			c0.682-3.051,2.299-5.501,4.54-7.729c3.435-3.413,7.817-5.14,12.128-6.975c3.054-1.298,6.295-2.167,9.42-3.313
			c1.396-0.512,2.783-0.659,4.251-0.575c2.013,0.118,4.031,0.174,6.048,0.175c0.591,0,1.385-0.088,1.737-0.457
			c1.998-2.091,4.662-2.624,7.317-3.099c1.434-0.256,2.457-0.861,3.109-2.096c0.756-1.432,1.944-2.223,3.568-2.372
			c1.074-0.099,1.844-0.69,2.604-1.372c2.697-2.423,5.437-4.802,8.13-7.229c0.771-0.698,1.578-1.126,2.656-1.22
			c1.565-0.136,3.123-0.411,4.67-0.696c0.732-0.134,1.443-0.405,2.146-0.663c0.693-0.254,1.365-0.57,2.037-0.854
			c0.104,0.204,0.229,0.343,0.197,0.399c-1.341,2.402-0.604,4.957-0.579,7.456c0.002,0.178,0.06,0.375,0.148,0.531
			c1.686,2.987,2.636,6.268,3.931,9.412c0.362,0.884,0.656,1.709,0.46,2.676c-0.254,1.244,0.021,2.429,0.416,3.633
			c0.462,1.403,0.751,2.862,1.079,4.305c0.23,1.016,0.284,2.061,1.215,2.825c0.328,0.268,0.513,0.865,0.523,1.317
			c0.036,1.665-0.017,3.332-0.058,4.998c-0.053,2.098-0.178,4.196-0.155,6.293c0.005,0.543,0.334,1.177,0.711,1.603
			c1.026,1.16,2.159,2.231,3.32,3.409c-2.027,2.037-1.726,4.684-2.18,7.529c-0.735-1.38-1.617-1.482-2.676-1.235
			c-0.793,0.184-1.641,0.139-2.432,0.322c-1.734,0.401-3.448,0.882-5.126,1.318c0.049,0.561,0.072,0.85,0.098,1.172
			c-0.263,0.025-0.452,0.083-0.626,0.055c-1.582-0.255-3.11-0.272-4.607,0.486c-0.505,0.254-1.21,0.214-1.813,0.174
			c-0.86-0.057-1.712-0.235-2.488-0.352c-1.452,1.508-1.441,1.479-3.226,0.856c-0.741-0.259-1.536-0.367-2.276-0.536
			c-1.184,1.86-2.169,3.566-3.321,5.157c-0.647,0.893-1.515,1.657-2.383,2.36c-1.048,0.847-1.829,1.843-2.415,3.036
			c-0.38,0.771-0.905,1.476-1.433,2.316c0.188,0.601,0.419,1.295,0.621,1.998c0.331,1.155,0.477,2.272-0.245,3.393
			c-0.685,1.061-0.234,2.123,0.461,3.343c-0.865,0.284-1.588,0.613-2.348,0.749c-0.97,0.174-1.382,0.586-1.393,1.603
			c-0.021,1.909-0.692,3.605-2.124,4.965c-1.852,1.756-3.104,3.818-3.61,6.341c-0.202,1.009-0.763,1.948-1.173,2.948
			c-0.914,0.169-1.767,0.325-2.648,0.485c-1.171,3.083-2.178,6.11-0.872,9.386c0.311,0.777-0.085,1.248-1.009,1.326
			c-0.877,0.074-1.765,0.03-2.646,0.054c-0.613,0.018-1.226,0.063-1.973,0.103c0.293,1.777,2.313,2.006,2.756,3.434
			c-0.058,0.11-0.09,0.283-0.178,0.317c-2.056,0.797-2.437,2.725-2.997,4.448c-0.559,1.714-0.808,3.556-0.017,5.251
			c0.414,0.887,0.546,1.664,0.4,2.594c-0.125,0.804,0.292,1.429,1.058,1.79c0.738,0.349,1.5,0.653,2.21,1.051
			c0.862,0.482,1.722,0.989,2.51,1.578c1.272,0.95,3.643,1.463,5.118-0.042c1.209-1.231,2.601-2.291,3.986-3.496
			c1.857,2.247,3.69,4.463,5.662,6.848c0.731-1.035,1.348-1.906,2.146-3.035c0.495,1.352,0.719,2.527,1.327,3.464
			c0.584,0.896,1.567,1.545,2.188,2.127c-0.351,1.285-0.389,2.638-1.047,3.571c-1.224,1.736-0.667,3.536-0.833,5.338
			c-0.184,1.974,0.133,4.144-1.412,5.825c-0.711,0.773-1.348,1.634-2.151,2.297c-2.462,2.028-5.051,3.911-7.476,5.979
			c-3.132,2.67-4.936,6.033-4.952,10.196c-0.005,1.472,0,2.945,0,4.586h-3.703c-0.442,1.904-0.844,3.635-1.303,5.606
			c-4.438-0.307-8.872-0.612-13.509-0.933c-0.041,1.325-0.27,2.81-0.082,4.242c0.205,1.564-0.001,2.936-0.912,4.209
			c0.395,0.688,0.762,1.328,1.176,2.051c-1.558,1.094-2.963,1.595-4.858,0.61c-1.543-0.801-3.291-1.197-4.485-2.594
			c-0.173-0.202-0.559-0.229-1.174-0.461c0.302,1.499,0.558,2.771,0.8,3.973c-0.223,0.17-0.323,0.31-0.419,0.31
			c-2.224-0.003-3.44,1.314-4.525,3.039c-1.365,2.17-2.582,4.372-3.318,6.832c-0.494,1.655-1.108,3.274-1.688,4.963
			c-1.498-0.277-2.52-1.053-3.076-2.303c-0.71-1.594-2.083-2.243-3.63-2.633c-2.195-0.555-4.398-1.109-6.629-1.479
			c-0.99-0.163-2.059,0.124-3.191,0.215c0.05,0.589,0.156,0.957,0.095,1.295c-0.202,1.088-0.346,2.189-1.787,2.511
			c-0.825,0.185-1.294,0.861-1.616,1.675c-0.9,2.274-2.819,3.342-5.113,3.832c-0.662,0.142-1.413,0.158-2.067,0.002
			c-1.739-0.416-2.724,0.631-3.654,1.723c-0.275,0.321-0.287,0.907-0.306,1.378c-0.034,0.865-0.258,1.487-1.179,1.887
			c-1.14,0.495-1.817,1.438-2.122,2.675c-0.154,0.626-0.583,1.186-0.898,1.771c-0.621,1.155-1.252,2.306-1.87,3.462
			c-0.055,0.103-0.101,0.268-0.056,0.354c1.017,1.935-0.216,3.897,0.165,5.789c-0.885,0.712-1.675,1.187-2.846,1.325
			c-1.214,0.145-2.499,0.732-3.082,2.104c-0.411,0.965-0.956,1.878-1.456,2.807c-0.563,1.043-1.017,1.09-2.099,0.692
			c-1.754-0.642-3.561-1.146-5.354-1.678c-0.752-0.223-1.527-0.516-2.292-0.514c-0.782,0.003-1.496,0.376-2.381,0.089
			c-0.875-0.284-1.776,0.714-1.675,1.676c0.103,0.98,0.287,1.952,0.443,2.973c0.361,0.217,0.729,0.45,1.108,0.665
			c1.989,1.129,2.073,3.146,0.176,4.366c-0.158,0.102-0.327,0.185-0.491,0.276c-2.108,1.19-2.003,1.18-1.742,3.787
			c0.09,0.9-0.48,1.863-0.717,2.687c0.137,1.221,0.269,2.39,0.399,3.536c-1.354,0-2.511-0.047-3.662,0.014
			c-1.285,0.067-1.828,1.197-2.727,2.086c-1.641-0.47-3.324-0.929-4.993-1.432c-0.817-0.245-1.563-0.301-2.337,0.177
			c-0.344,0.214-0.853,0.381-1.228,0.3c-2.435-0.521-4.57,0.552-6.72,1.274c-1.988,0.669-1.855,0.769-3.391-0.531
			c-0.923-0.783-2.056-1.396-3.193-1.844c-0.682-0.269-0.998-0.57-1.201-1.219c-0.381-1.222-0.839-2.421-1.302-3.616
			c-0.081-0.209-0.303-0.429-0.514-0.513c-1.431-0.565-2.003-1.78-2.527-3.063c-0.16-0.389-0.447-0.736-0.718-1.068
			c-0.744-0.908-1.561-1.763-2.253-2.706c-0.604-0.822-1.282-1.271-2.365-1.212c-0.868,0.048-1.779,0.01-2.616-0.201
			c-1.001-0.252-2.038-0.488-2.469-1.727c-0.366-1.05-0.357-1.821,0.454-2.678c1.259-1.328,2.17-2.887,2.378-4.743
			c0.122-1.1,0.088-2.081-0.644-3.138c-0.837-1.206-0.459-2.707-0.05-4.104c0.179-0.613,0.288-1.352,0.11-1.941
			c-0.529-1.762-1.187-3.488-1.848-5.208c-0.48-1.248-0.467-1.476,0.495-2.213c1.355-1.04,1.711-2.045,0.952-3.504
			c-0.647-1.243-1.528-2.367-2.628-3.41c0-0.735,0.049-1.477-0.02-2.207c-0.039-0.411-0.151-1.008-0.438-1.172
			c-1.47-0.841-1.063-2.057-0.775-3.237c0.275-1.127,0.64-2.234,1.004-3.481c-1.484-0.945-2.819-1.856-4.221-2.651
			c-0.372-0.21-0.968-0.148-1.429-0.06c-0.538,0.105-1.043,0.378-1.771,0.657c0.667,2.05-0.599,3.671-1.396,5.462
			c-0.426,0.959-0.42,2.103-0.664,3.47c0.159-0.063-0.048,0.039-0.266,0.101c-1.564,0.445-1.566,0.442-1.708,2.11
			c-0.116,1.373-0.478,1.794-1.813,1.861c-1.329,0.068-2.655-0.015-3.384,1.462c-0.139,0.28-0.747,0.358-1.152,0.489
			c-0.347,0.111-0.777,0.072-1.058,0.262c-0.64,0.432-1.205,0.449-1.936,0.168c-1.173-0.452-2.16-0.112-3.013,0.869
			c-1.243,1.43-1.572,1.349-3.372,0.578c-0.938-0.401-2.051-0.413-3.22-0.625c-0.934-1.417-1.875-3.019-2.997-4.486
			c-0.815-1.066-1.938-1.9-2.797-2.938c-0.917-1.112-1.504-2.403-1.553-3.888c-0.016-0.486-0.137-0.974-0.24-1.454
			c-0.255-1.195-0.435-2.416-0.817-3.573c-0.38-1.154-0.969-2.242-1.513-3.462c-1.075,0.368-2.016,0.977-2.892,0.075
			c-1.429,0.499-2.684-0.194-4.004-0.524c-0.756-0.189-1.752,0.579-2.087,1.558c-0.455,1.327-0.477,2.666,0.092,3.986
			c1.062,2.469,0.29,4.109-2.345,4.35c-1.472,0.133-2.307,0.748-2.964,1.934c-0.585-0.089-1.124-0.171-1.86-0.283
			c-0.651,1.106-1.402,2.176-1.925,3.344c-0.333,0.74-0.806,1.191-1.461,1.603c-2.027,1.271-4.355,1.528-6.627,1.978
			c-0.302,0.06-0.609,0.088-0.902,0.127c-0.117,0.213-0.301,0.389-0.277,0.53c0.545,3.203-1.336,5.132-3.677,6.834
			c-0.281,0.205-0.495,0.495-0.763,0.722c-0.594,0.501-1.132,1.222-1.822,1.421c-0.954,0.274-1.417,0.694-1.809,1.593
			C269.335,428.594,268.48,429.681,267.633,431.034z"/>
		<path fill="#FFFFFF" d="M291.267,42.153c1.022-0.914,1.832-1.632,2.634-2.357c0.416-0.377,0.801-0.787,1.228-1.15
			c1.77-1.511,1.942-2.858,0.456-4.605c-0.479-0.563-0.735-0.982-0.009-1.642c0.774,0.428,1.497,1.297,2.585,0.777
			c1.162,1.149,2.448,1.532,4.054,0.854c0.275-0.116,0.842,0.43,1.274,0.669c1.292-0.062,2.012-0.832,2.441-2.18
			c1.03,0.122,2.006,0.229,2.978,0.357c0.554,0.073,1.106,0.272,1.653,0.253c1.515-0.049,1.82-0.389,1.889-1.876
			c0.089-1.958,0.506-3.954-0.724-5.758c-0.092-0.134-0.072-0.367-0.049-0.547c0.283-2.229-0.007-4.521,0.818-6.694
			c0.189-0.498,0.126-1.082,0.234-1.616s0.182-1.112,0.451-1.572c0.446-0.762,0.958-1.351,1.078-2.388
			c0.127-1.105,1.602-1.615,2.711-1.927c1.618-0.455,3.065-0.91,3.49-2.809c0.17-0.758,0.693-1.439,1.032-2.107
			c0.794-0.192,1.523-0.553,2.215-0.493c0.963,0.083,2.04,0.271,2.82,0.78c3.364,2.198,5.575,2.313,9.028,0.206
			c1.871,0.843,2.482,2.491,2.665,4.325c0.216,2.169,0.621,4.283,1.537,6.273c0.249,0.538,0.663,1.007,1.032,1.484
			c0.147,0.19,0.523,0.298,0.548,0.477c0.299,2.091,2.199,2.62,3.726,3.71c0.421-0.253,0.881-0.553,1.363-0.813
			c0.976-0.53,1.992-0.993,2.938-1.568c0.897-0.542,1.747-1.169,2.583-1.803c1.119-0.849,1.734-2.317,3.508-2.68
			c0.65,1.146,1.348,2.299,1.96,3.494c0.272,0.532,0.224,1.355,1.047,1.342c0.782-0.013,1.643,0.05,2.236-0.723
			c0.519-0.677,1.131-1.283,1.751-1.973c1.351,2.769,1.797,5.507,1.702,8.367c-0.043,1.297,0.334,2.172,1.33,3.883
			c1.024-0.886,2.043-1.748,3.038-2.634c1.614-1.44,3.444-2.483,5.582-2.957c0.982-0.218,1.633-0.771,2.207-1.583
			c0.559-0.792,1.267-1.526,2.043-2.118c1.381-1.055,2.208-2.33,1.973-4.284c1.057,0.117,1.855,0.25,2.656,0.278
			c0.799,0.028,1.649,0.104,2.391-0.119c1.097-0.329,2.06-0.244,3.094,0.174c0.683,0.277,1.446,0.396,2.185,0.497
			c1.523,0.206,2.852-0.074,3.76-1.482c0.25-0.388,0.721-0.72,1.165-0.895c2.101-0.826,4.221-1.608,6.35-2.362
			c0.639-0.226,1.332-0.304,2.179-0.488c1.843,3.253,4.411,6.089,4.865,9.934c0.177,1.497,1.37,1.774,2.396,1.948
			c1.389,0.235,2.629,0.629,3.887,1.263c0.648,0.327,1.715,0.061,2.521-0.175c0.972-0.285,1.75-0.212,2.359,0.576
			c0.693,0.897,1.729,0.523,2.659,0.742c0.33,1.928,0.356,3.852-0.288,5.679c-0.316,0.893-1.044,1.669-1.678,2.425
			c-1.85,2.206-2.725,4.841-3.56,7.503c-0.266,0.845-0.146,1.549,0.532,2.187c3.337,3.132,3.724,7.272,3.98,11.438
			c0.083,1.356,0.034,2.72,0.044,4.082c0.003,0.308,0.115,0.681-0.019,0.916c-1.036,1.822-0.839,3.832-0.942,5.784
			c-0.104,1.96-0.997,3.606-2.198,5.022c-1.633,1.926-2.022,4.215-1.799,6.443c0.177,1.763,1.272,3.438,1.981,5.144
			c0.117,0.28,0.311,0.546,0.522,0.77c0.79,0.834,0.758,1.648,0.292,2.687c-1.406,3.134-2.248,6.405-2.216,9.872
			c0.017,1.737,0.759,2.623,2.485,2.766c1.82,0.151,3.637,0.341,5.447,0.575c0.965,0.124,1.855,0.16,2.71-0.432
			c0.326-0.225,0.83-0.363,1.219-0.308c2.115,0.3,4.238,0.584,6.321,1.042c2.114,0.465,4.078,1.339,5.343,3.186
			c1.151,1.68,1.688,3.545,1.354,5.6c-0.375,2.302,0.021,4.551,0.549,6.785c0.042,0.179,0.209,0.362,0.183,0.521
			c-0.358,2.103-0.474,4.299-1.21,6.269c-0.487,1.303-1.807,2.349-2.88,3.384c-1.211,1.168-2.543,2.221-3.863,3.274
			c-0.588,0.471-0.949,0.999-0.856,1.738c0.214,1.715-0.565,3.098-1.425,4.493c-1.248,2.028-0.972,3.153,0.923,4.563
			c2.057,1.531,4.254,1.998,6.732,1.091c0.469-0.172,1.207-0.243,1.566,0c1.695,1.149,3.515,1.911,5.415,2.045
			c1.578,2.081,1.729,4.283,1.561,6.602c-0.084,1.15,0.075,2.348,0.324,3.481c0.367,1.676,0.323,3.312-0.04,4.964
			c-0.118,0.544-0.226,1.091-0.338,1.635c-0.179,0.872-0.012,1.582,0.875,2.027c0.93,0.466,1.23,1.354,0.95,2.209
			c-0.583,1.771-0.313,3.539-0.242,5.38c-1.788,1.27-3.156,2.894-4.399,4.718c-1.233,1.811-1.142,3.642,1.038,5.487
			c0.187,0.159,0.396,0.293,0.628,0.461c0.061,1.17,0.123,2.34,0.183,3.512c0.058,1.116-0.383,1.919-1.515,2.264
			c-1.498,0.457-2.399,1.512-3.032,2.854c-0.239,0.505-0.483,1.011-0.781,1.482c-1.586,2.519-2.515,5.23-2.641,8.203
			c-0.145,3.461-1.984,5.883-5.059,7.347c-1.84,0.875-2.925,2.302-3.752,3.985c-0.393,0.798-0.527,1.717-0.787,2.579
			c-0.756,2.51-1.879,4.958-1.648,7.655c0.104,1.211,1.036,1.923,2.108,2.389c1.646,0.712,1.774,0.944,1.467,2.628
			c-0.596,3.28-1.125,6.571-1.764,9.842c-0.355,1.817-0.85,3.608-1.33,5.4c-0.337,1.258-0.057,2.374,0.868,3.231
			c0.814,0.752,0.846,1.573,0.684,2.531c-0.495,2.927-0.891,5.873-1.474,8.782c-0.264,1.316-0.789,2.604-1.351,3.835
			c-2.69,5.896-6.092,11.354-10.195,16.428c-2.856,3.531-5.591,7.187-8.038,10.998c-1.987,3.095-4.686,4.541-8.229,4.783
			c-2.325,0.159-4.656,0.268-6.987,0.323c-3.272,0.078-6.549,0.18-9.819,0.108c-5.45-0.119-10.583-1.443-15.288-4.222
			c-4.32-2.549-8.648-5.084-12.982-7.61c-4.78-2.787-9.715-5.247-15.113-6.684c-1.089-0.29-2.217-0.509-3.339-0.601
			c-8.642-0.701-17.247-0.745-25.734,1.413c-1.742,0.441-3.31,1.152-4.757,2.177c-4.271,3.019-7.973,6.64-11.472,10.472
			c-4.332,4.746-8.562,9.585-12.981,14.25c-3.432,3.624-7.098,7.034-10.64,10.558c-1.716,1.708-3.788,2.635-6.199,2.84
			c-4.717,0.4-9.431,0.521-14.162,0.054c-3.191-0.315-5.753-1.496-7.698-4.086c-2.654-3.535-5.45-6.966-8.19-10.436
			c-0.309-0.391-0.626-0.782-0.992-1.119c-6.495-5.97-12.057-12.778-17.992-19.252c-0.629-0.688-1.317-1.332-2.032-1.935
			c-2.057-1.734-4.16-3.412-6.208-5.155c-3.656-3.111-7.841-5.414-12.191-7.38c-5.26-2.376-10.648-4.475-15.961-6.737
			c-2.656-1.13-5.3-2.294-7.896-3.55c-4.347-2.106-8.628-4.347-12.981-6.443c-3.662-1.761-6.844-4.091-9.784-6.873
			c-6.261-5.927-12.684-11.688-19.042-17.514c-2.245-2.058-4.494-4.112-6.873-6.288c0.844-0.329,1.615-0.704,2.431-0.932
			c3.208-0.895,6.439-1.707,9.641-2.623c1.263-0.361,2.47-0.909,3.7-1.381c0.757-0.292,1.485-0.688,2.267-0.876
			c1.039-0.249,1.653-0.754,1.839-1.817c0.347-1.98,0.952-3.941,1.064-5.931c0.063-1.135-0.204-2.276,0.286-3.392
			c0.225-0.512,0.311-1.043,1.051-1.132c0.812-0.096,1.178-0.755,1.273-1.439c0.464-3.355,2.489-5.658,5.061-7.699
			c0.846-0.671,1.395-1.727,2-2.657c0.351-0.542,0.602-1.103,1.497-0.933c0.498,0.852,0.101,1.762-0.38,2.344
			c-1.203,1.456-0.725,2.893-0.263,4.356c0.219,0.692,0.612,1.332,0.961,2.069c1.189-0.122,2.292-0.263,3.4-0.334
			c0.55-0.036,1.222-0.125,1.641,0.127c1.101,0.662,2.084,0.366,3.007-0.186c0.605-0.363,1.061-0.42,1.737-0.189
			c0.755,0.258,1.625,0.176,2.405,0.382c0.963,0.256,1.651,0.156,2.274-0.721c0.315-0.443,0.978-0.671,1.516-0.929
			c0.432-0.208,0.916-0.314,1.47-0.497c-0.672-1.461,0.045-3.043-0.925-4.349c-0.134-0.18-0.07-0.661,0.086-0.864
			c0.715-0.929,1.414-1.894,2.275-2.684c1.138-1.044,1.224-1.357,0.781-2.671c-0.302-0.891-0.506-1.918-0.369-2.828
			c0.296-1.968-0.044-3.761-0.791-5.578c-0.378-0.917-0.408-1.969-0.585-2.904c2.259-0.918,2.354-1.147,2.082-3.115
			c-0.134-0.968-0.18-1.979-0.063-2.945c0.315-2.577,0.109-5.047-0.64-7.571c-0.445-1.496-0.637-3.128,0.118-4.831
			c0.582-1.309,1.192-2.73,1.237-4.292c0.03-1.009,0.455-2.029,0.826-2.998c0.126-0.333,0.589-0.627,0.965-0.769
			c0.858-0.323,1.224-0.813,1.367-1.758c0.175-1.159,0.572-2.291,1.898-2.894c1.172-0.533,1.364-1.449,0.85-2.64
			c-0.867-2.007-0.607-3.059,1.215-4.173c0.83-0.506,1.087-1.075,0.939-1.991c-0.085-0.528-0.023-1.122,0.139-1.637
			c0.502-1.609,0.076-2.989-1.202-3.973c-1.292-0.995-1.117-2.563-1.826-3.767c-0.1-0.169,0.104-0.608,0.286-0.828
			c1.249-1.516,2.509-2.998,4.278-4.022c0.509-0.296,0.878-1.2,0.902-1.84c0.041-1.026-0.102-2.123-0.464-3.082
			c-0.325-0.855-0.273-1.56,0.104-2.298c0.43-0.842,0.262-1.599,0.015-2.484c-0.409-1.467-0.784-3.024-0.706-4.521
			c0.097-1.875-0.432-3.377-1.59-4.779c-0.581-0.704-1.076-1.476-1.771-2.438c1.793-0.057,2.956,0.518,4.061,1.376
			c1.227,0.953,2.481,1.892,3.82,2.677c0.597,0.351,1.45,0.485,2.155,0.414c2.816-0.282,5.624-0.66,8.426-1.059
			c0.536-0.077,1.118-0.303,1.537-0.634c1.961-1.548,3.989-3.042,5.771-4.775c1.786-1.738,3.708-2.627,6.249-2.367
			c2.645,0.271,4.659-0.794,5.86-3.178c0.948-1.88,1.902-3.761,2.799-5.666c0.646-1.369,1.736-2.342,3.049-2.924
			c1.886-0.835,3.89-1.417,5.85-2.09c0.157-0.055,0.361,0.019,0.656,0.042c0.092,0.332,0.276,0.675,0.262,1.01
			c-0.042,0.932,0.47,1.401,1.197,1.917c1.048,0.744,1.99,1.653,2.888,2.576c0.613,0.63,1.313,0.887,2.151,1.013
			c2.356,0.353,4.044,1.584,5.104,3.709c0.994,1.995,1.844,4.131,3.221,5.847c1.118,1.392,1.912,2.588,2.081,4.441
			c0.111,1.229,1.105,2.409,1.265,3.809c0.055,0.48,0.698,0.987,1.192,1.303c0.511,0.328,1.154,0.493,1.763,0.629
			c0.936,0.208,1.366,0.704,1.804,1.598c0.721,1.473,1.685,2.944,2.895,4.05c1.569,1.437,1.492,3.315,1.907,5.042
			c0.16,0.669-0.011,1.438,0.431,2.094c0.098,0.145,0.181,0.38,0.13,0.526c-0.479,1.373,0.012,2.233,1.369,2.735
			c0.254,0.094,0.454,0.429,0.597,0.696c0.81,1.507,2.177,1.884,3.769,1.865c0.438-0.005,0.886,0.033,1.316,0.117
			c1.509,0.292,1.753,0.296,2.383-0.92c0.642-1.236,1.286-2.289,2.932-2.093c1.296-1.204,3.419-1.153,4.409-2.908
			c0.315-0.56,1.118-0.955,1.785-1.199c0.846-0.311,1.403-0.739,1.585-1.625c0.358-1.751,0.855-3.484,1.069-5.251
			c0.103-0.855-0.307-1.77-0.466-2.569c-2.214-0.543-3.015-2.444-1.908-4.148c1.111-1.712,1.299-3.561,0.922-5.506
			c-0.023-0.122-0.008-0.297-0.084-0.354c-1.366-1.031-1.062-2.458-1.117-3.875c-0.031-0.776-0.596-1.59-1.079-2.279
			c-0.738-1.053-1.793-1.884-1.957-3.302c-0.047-0.418-0.608-0.764-0.88-1.177c-0.336-0.512-0.703-1.029-0.907-1.597
			c-0.683-1.9-0.467-2.191,1.321-3.217c3.446-1.978,6.314-4.543,7.552-8.396c0.452-1.403,1.68-1.909,2.612-2.621
			c1.331-1.018,3.185-1.366,4.544-2.358c1.186-0.863,2.414-2.006,1.826-3.877c-0.196-0.623-0.166-1.371-0.039-2.024
			c0.367-1.876,0.114-3.719-0.05-5.586c-0.106-1.21,0.231-2.457-0.324-3.634c1.185-1.521,0.089-2.691-0.613-3.932
			c-0.116-0.206-0.165-0.483-0.151-0.721C292.556,44.993,292.207,43.399,291.267,42.153"/>
		<path fill="none" stroke="#000000" stroke-width="1.4408" stroke-miterlimit="10" d="M291.267,42.153
			c1.022-0.914,1.832-1.632,2.634-2.357c0.416-0.377,0.801-0.787,1.228-1.15c1.77-1.511,1.942-2.858,0.456-4.605
			c-0.479-0.563-0.735-0.982-0.009-1.642c0.774,0.428,1.497,1.297,2.585,0.777c1.162,1.149,2.448,1.532,4.054,0.854
			c0.275-0.116,0.842,0.43,1.274,0.669c1.292-0.062,2.012-0.832,2.441-2.18c1.03,0.122,2.006,0.229,2.978,0.357
			c0.554,0.073,1.106,0.272,1.653,0.253c1.515-0.049,1.82-0.389,1.889-1.876c0.089-1.958,0.506-3.954-0.724-5.758
			c-0.092-0.134-0.072-0.367-0.049-0.547c0.283-2.229-0.007-4.521,0.818-6.694c0.189-0.498,0.126-1.082,0.234-1.616
			s0.182-1.112,0.451-1.572c0.446-0.762,0.958-1.351,1.078-2.388c0.127-1.105,1.602-1.615,2.711-1.927
			c1.618-0.455,3.065-0.91,3.49-2.809c0.17-0.758,0.693-1.439,1.032-2.107c0.794-0.192,1.523-0.553,2.215-0.493
			c0.963,0.083,2.04,0.271,2.82,0.78c3.364,2.198,5.575,2.313,9.028,0.206c1.871,0.843,2.482,2.491,2.665,4.325
			c0.216,2.169,0.621,4.283,1.537,6.273c0.249,0.538,0.663,1.007,1.032,1.484c0.147,0.19,0.523,0.298,0.548,0.477
			c0.299,2.091,2.199,2.62,3.726,3.71c0.421-0.253,0.881-0.553,1.363-0.813c0.976-0.53,1.992-0.993,2.938-1.568
			c0.897-0.542,1.747-1.169,2.583-1.803c1.119-0.849,1.734-2.317,3.508-2.68c0.65,1.146,1.348,2.299,1.96,3.494
			c0.272,0.532,0.224,1.355,1.047,1.342c0.782-0.013,1.643,0.05,2.236-0.723c0.519-0.677,1.131-1.283,1.751-1.973
			c1.351,2.769,1.797,5.507,1.702,8.367c-0.043,1.297,0.334,2.172,1.33,3.883c1.024-0.886,2.043-1.748,3.038-2.634
			c1.614-1.44,3.444-2.483,5.582-2.957c0.982-0.218,1.633-0.771,2.207-1.583c0.559-0.792,1.267-1.526,2.043-2.118
			c1.381-1.055,2.208-2.33,1.973-4.284c1.057,0.117,1.855,0.25,2.656,0.278c0.799,0.028,1.649,0.104,2.391-0.119
			c1.097-0.329,2.06-0.244,3.094,0.174c0.683,0.277,1.446,0.396,2.185,0.497c1.523,0.206,2.852-0.074,3.76-1.482
			c0.25-0.388,0.721-0.72,1.165-0.895c2.101-0.826,4.221-1.608,6.35-2.362c0.639-0.226,1.332-0.304,2.179-0.488
			c1.843,3.253,4.411,6.089,4.865,9.934c0.177,1.497,1.37,1.774,2.396,1.948c1.389,0.235,2.629,0.629,3.887,1.263
			c0.648,0.327,1.715,0.061,2.521-0.175c0.972-0.285,1.75-0.212,2.359,0.576c0.693,0.897,1.729,0.523,2.659,0.742
			c0.33,1.928,0.356,3.852-0.288,5.679c-0.316,0.893-1.044,1.669-1.678,2.425c-1.85,2.206-2.725,4.841-3.56,7.503
			c-0.266,0.845-0.146,1.549,0.532,2.187c3.337,3.132,3.724,7.272,3.98,11.438c0.083,1.356,0.034,2.72,0.044,4.082
			c0.003,0.308,0.115,0.681-0.019,0.916c-1.036,1.822-0.839,3.832-0.942,5.784c-0.104,1.96-0.997,3.606-2.198,5.022
			c-1.633,1.926-2.022,4.215-1.799,6.443c0.177,1.763,1.272,3.438,1.981,5.144c0.117,0.28,0.311,0.546,0.522,0.77
			c0.79,0.834,0.758,1.648,0.292,2.687c-1.406,3.134-2.248,6.405-2.216,9.872c0.017,1.737,0.759,2.623,2.485,2.766
			c1.82,0.151,3.637,0.341,5.447,0.575c0.965,0.124,1.855,0.16,2.71-0.432c0.326-0.225,0.83-0.363,1.219-0.308
			c2.115,0.3,4.238,0.584,6.321,1.042c2.114,0.465,4.078,1.339,5.343,3.186c1.151,1.68,1.688,3.545,1.354,5.6
			c-0.375,2.302,0.021,4.551,0.549,6.785c0.042,0.179,0.209,0.362,0.183,0.521c-0.358,2.103-0.474,4.299-1.21,6.269
			c-0.487,1.303-1.807,2.349-2.88,3.384c-1.211,1.168-2.543,2.221-3.863,3.274c-0.588,0.471-0.949,0.999-0.856,1.738
			c0.214,1.715-0.565,3.098-1.425,4.493c-1.248,2.028-0.972,3.153,0.923,4.563c2.057,1.531,4.254,1.998,6.732,1.091
			c0.469-0.172,1.207-0.243,1.566,0c1.695,1.149,3.515,1.911,5.415,2.045c1.578,2.081,1.729,4.283,1.561,6.602
			c-0.084,1.15,0.075,2.348,0.324,3.481c0.367,1.676,0.323,3.312-0.04,4.964c-0.118,0.544-0.226,1.091-0.338,1.635
			c-0.179,0.872-0.012,1.582,0.875,2.027c0.93,0.466,1.23,1.354,0.95,2.209c-0.583,1.771-0.313,3.539-0.242,5.38
			c-1.788,1.27-3.156,2.894-4.399,4.718c-1.233,1.811-1.142,3.642,1.038,5.487c0.187,0.159,0.396,0.293,0.628,0.461
			c0.061,1.17,0.123,2.34,0.183,3.512c0.058,1.116-0.383,1.919-1.515,2.264c-1.498,0.457-2.399,1.512-3.032,2.854
			c-0.239,0.505-0.483,1.011-0.781,1.482c-1.586,2.519-2.515,5.23-2.641,8.203c-0.145,3.461-1.984,5.883-5.059,7.347
			c-1.84,0.875-2.925,2.302-3.752,3.985c-0.393,0.798-0.527,1.717-0.787,2.579c-0.756,2.51-1.879,4.958-1.648,7.655
			c0.104,1.211,1.036,1.923,2.108,2.389c1.646,0.712,1.774,0.944,1.467,2.628c-0.596,3.28-1.125,6.571-1.764,9.842
			c-0.355,1.817-0.85,3.608-1.33,5.4c-0.337,1.258-0.057,2.374,0.868,3.231c0.814,0.752,0.846,1.573,0.684,2.531
			c-0.495,2.927-0.891,5.873-1.474,8.782c-0.264,1.316-0.789,2.604-1.351,3.835c-2.69,5.896-6.092,11.354-10.195,16.428
			c-2.856,3.531-5.591,7.187-8.038,10.998c-1.987,3.095-4.686,4.541-8.229,4.783c-2.325,0.159-4.656,0.268-6.987,0.323
			c-3.272,0.078-6.549,0.18-9.819,0.108c-5.45-0.119-10.583-1.443-15.288-4.222c-4.32-2.549-8.648-5.084-12.982-7.61
			c-4.78-2.787-9.715-5.247-15.113-6.684c-1.089-0.29-2.217-0.509-3.339-0.601c-8.642-0.701-17.247-0.745-25.734,1.413
			c-1.742,0.441-3.31,1.152-4.757,2.177c-4.271,3.019-7.973,6.64-11.472,10.472c-4.332,4.746-8.562,9.585-12.981,14.25
			c-3.432,3.624-7.098,7.034-10.64,10.558c-1.716,1.708-3.788,2.635-6.199,2.84c-4.717,0.4-9.431,0.521-14.162,0.054
			c-3.191-0.315-5.753-1.496-7.698-4.086c-2.654-3.535-5.45-6.966-8.19-10.436c-0.309-0.391-0.626-0.782-0.992-1.119
			c-6.495-5.97-12.057-12.778-17.992-19.252c-0.629-0.688-1.317-1.332-2.032-1.935c-2.057-1.734-4.16-3.412-6.208-5.155
			c-3.656-3.111-7.841-5.414-12.191-7.38c-5.26-2.376-10.648-4.475-15.961-6.737c-2.656-1.13-5.3-2.294-7.896-3.55
			c-4.347-2.106-8.628-4.347-12.981-6.443c-3.662-1.761-6.844-4.091-9.784-6.873c-6.261-5.927-12.684-11.688-19.042-17.514
			c-2.245-2.058-4.494-4.112-6.873-6.288c0.844-0.329,1.615-0.704,2.431-0.932c3.208-0.895,6.439-1.707,9.641-2.623
			c1.263-0.361,2.47-0.909,3.7-1.381c0.757-0.292,1.485-0.688,2.267-0.876c1.039-0.249,1.653-0.754,1.839-1.817
			c0.347-1.98,0.952-3.941,1.064-5.931c0.063-1.135-0.204-2.276,0.286-3.392c0.225-0.512,0.311-1.043,1.051-1.132
			c0.812-0.096,1.178-0.755,1.273-1.439c0.464-3.355,2.489-5.658,5.061-7.699c0.846-0.671,1.395-1.727,2-2.657
			c0.351-0.542,0.602-1.103,1.497-0.933c0.498,0.852,0.101,1.762-0.38,2.344c-1.203,1.456-0.725,2.893-0.263,4.356
			c0.219,0.692,0.612,1.332,0.961,2.069c1.189-0.122,2.292-0.263,3.4-0.334c0.55-0.036,1.222-0.125,1.641,0.127
			c1.101,0.662,2.084,0.366,3.007-0.186c0.605-0.363,1.061-0.42,1.737-0.189c0.755,0.258,1.625,0.176,2.405,0.382
			c0.963,0.256,1.651,0.156,2.274-0.721c0.315-0.443,0.978-0.671,1.516-0.929c0.432-0.208,0.916-0.314,1.47-0.497
			c-0.672-1.461,0.045-3.043-0.925-4.349c-0.134-0.18-0.07-0.661,0.086-0.864c0.715-0.929,1.414-1.894,2.275-2.684
			c1.138-1.044,1.224-1.357,0.781-2.671c-0.302-0.891-0.506-1.918-0.369-2.828c0.296-1.968-0.044-3.761-0.791-5.578
			c-0.378-0.917-0.408-1.969-0.585-2.904c2.259-0.918,2.354-1.147,2.082-3.115c-0.134-0.968-0.18-1.979-0.063-2.945
			c0.315-2.577,0.109-5.047-0.64-7.571c-0.445-1.496-0.637-3.128,0.118-4.831c0.582-1.309,1.192-2.73,1.237-4.292
			c0.03-1.009,0.455-2.029,0.826-2.998c0.126-0.333,0.589-0.627,0.965-0.769c0.858-0.323,1.224-0.813,1.367-1.758
			c0.175-1.159,0.572-2.291,1.898-2.894c1.172-0.533,1.364-1.449,0.85-2.64c-0.867-2.007-0.607-3.059,1.215-4.173
			c0.83-0.506,1.087-1.075,0.939-1.991c-0.085-0.528-0.023-1.122,0.139-1.637c0.502-1.609,0.076-2.989-1.202-3.973
			c-1.292-0.995-1.117-2.563-1.826-3.767c-0.1-0.169,0.104-0.608,0.286-0.828c1.249-1.516,2.509-2.998,4.278-4.022
			c0.509-0.296,0.878-1.2,0.902-1.84c0.041-1.026-0.102-2.123-0.464-3.082c-0.325-0.855-0.273-1.56,0.104-2.298
			c0.43-0.842,0.262-1.599,0.015-2.484c-0.409-1.467-0.784-3.024-0.706-4.521c0.097-1.875-0.432-3.377-1.59-4.779
			c-0.581-0.704-1.076-1.476-1.771-2.438c1.793-0.057,2.956,0.518,4.061,1.376c1.227,0.953,2.481,1.892,3.82,2.677
			c0.597,0.351,1.45,0.485,2.155,0.414c2.816-0.282,5.624-0.66,8.426-1.059c0.536-0.077,1.118-0.303,1.537-0.634
			c1.961-1.548,3.989-3.042,5.771-4.775c1.786-1.738,3.708-2.627,6.249-2.367c2.645,0.271,4.659-0.794,5.86-3.178
			c0.948-1.88,1.902-3.761,2.799-5.666c0.646-1.369,1.736-2.342,3.049-2.924c1.886-0.835,3.89-1.417,5.85-2.09
			c0.157-0.055,0.361,0.019,0.656,0.042c0.092,0.332,0.276,0.675,0.262,1.01c-0.042,0.932,0.47,1.401,1.197,1.917
			c1.048,0.744,1.99,1.653,2.888,2.576c0.613,0.63,1.313,0.887,2.151,1.013c2.356,0.353,4.044,1.584,5.104,3.709
			c0.994,1.995,1.844,4.131,3.221,5.847c1.118,1.392,1.912,2.588,2.081,4.441c0.111,1.229,1.105,2.409,1.265,3.809
			c0.055,0.48,0.698,0.987,1.192,1.303c0.511,0.328,1.154,0.493,1.763,0.629c0.936,0.208,1.366,0.704,1.804,1.598
			c0.721,1.473,1.685,2.944,2.895,4.05c1.569,1.437,1.492,3.315,1.907,5.042c0.16,0.669-0.011,1.438,0.431,2.094
			c0.098,0.145,0.181,0.38,0.13,0.526c-0.479,1.373,0.012,2.233,1.369,2.735c0.254,0.094,0.454,0.429,0.597,0.696
			c0.81,1.507,2.177,1.884,3.769,1.865c0.438-0.005,0.886,0.033,1.316,0.117c1.509,0.292,1.753,0.296,2.383-0.92
			c0.642-1.236,1.286-2.289,2.932-2.093c1.296-1.204,3.419-1.153,4.409-2.908c0.315-0.56,1.118-0.955,1.785-1.199
			c0.846-0.311,1.403-0.739,1.585-1.625c0.358-1.751,0.855-3.484,1.069-5.251c0.103-0.855-0.307-1.77-0.466-2.569
			c-2.214-0.543-3.015-2.444-1.908-4.148c1.111-1.712,1.299-3.561,0.922-5.506c-0.023-0.122-0.008-0.297-0.084-0.354
			c-1.366-1.031-1.062-2.458-1.117-3.875c-0.031-0.776-0.596-1.59-1.079-2.279c-0.738-1.053-1.793-1.884-1.957-3.302
			c-0.047-0.418-0.608-0.764-0.88-1.177c-0.336-0.512-0.703-1.029-0.907-1.597c-0.683-1.9-0.467-2.191,1.321-3.217
			c3.446-1.978,6.314-4.543,7.552-8.396c0.452-1.403,1.68-1.909,2.612-2.621c1.331-1.018,3.185-1.366,4.544-2.358
			c1.186-0.863,2.414-2.006,1.826-3.877c-0.196-0.623-0.166-1.371-0.039-2.024c0.367-1.876,0.114-3.719-0.05-5.586
			c-0.106-1.21,0.231-2.457-0.324-3.634c1.185-1.521,0.089-2.691-0.613-3.932c-0.116-0.206-0.165-0.483-0.151-0.721
			C292.556,44.993,292.207,43.399,291.267,42.153z"/>
		<path fill="#FFFFFF" d="M218.909,300.128c-3.596,0.185-6.854,0.354-10.112,0.517c-0.503,0.025-1.008,0.002-1.512,0.022
			c-4.097,0.171-7.438-1.232-10.211-4.269c-3.575-3.915-3.794-3.962-4.892-9.113c-0.734-3.444-1.255-6.933-1.859-10.404
			c-0.049-0.288-0.006-0.591-0.006-1.118C202.376,281.151,210.725,290.365,218.909,300.128"/>
		<path fill="none" stroke="#000000" stroke-width="1.4408" stroke-miterlimit="10" d="M218.909,300.128
			c-3.596,0.185-6.854,0.354-10.112,0.517c-0.503,0.025-1.008,0.002-1.512,0.022c-4.097,0.171-7.438-1.232-10.211-4.269
			c-3.575-3.915-3.794-3.962-4.892-9.113c-0.734-3.444-1.255-6.933-1.859-10.404c-0.049-0.288-0.006-0.591-0.006-1.118
			C202.376,281.151,210.725,290.365,218.909,300.128z"/>
	</g>
</g>
</svg>
